<svg xmlns="http://www.w3.org/2000/svg" width="168.8mm" height="110.31mm" viewBox="0 0 478.5 312.68"><defs><style>.a{fill:#d20a11;}.b{fill:#fff;}</style></defs><title>cotswold-outdoor</title><rect class="a" width="478.5" height="312.68"/><path class="b" d="M102.17,125s106.9-34.49,140-34.36c33.34.14,140,34.36,140,34.36s-94.55-25.38-140-25.45C196.14,99.47,102.17,125,102.17,125Z"/><path class="b" d="M383.39,142.14c-9,0-23.56-.1-23.56-.1l-10,32.74c22.26,0,26.71.1,27.73.1s5.38,0,7.52-6.78,5.11-16.9,5.36-18.57S390.71,142.14,383.39,142.14Zm-4.59,8.25c-.22,1.2-4.46,14.95-4.86,16.46s-1,2.43-2.39,2.43h-7.93l6.89-21.75h6.85C379.33,147.52,379,149.12,378.8,150.39Z"/><path class="b" d="M122.25,147.42H107.79a3.36,3.36,0,0,0-3.24,2.31c-4.27,13.82-.14.47-4.51,14.73-.83,2.68-1.23,4.69,1.08,4.7,2.14,0,15.78,0,15.78,0l-1.7,5.59-21.29.05a7.38,7.38,0,0,1-4.33-2.37c-1.77-2.08-2-3.87-.86-7.62s4.76-15.62,5.28-17.29c.84-2.73,3.67-5.63,10.29-5.63h19.55Z"/><polygon class="b" points="195.97 142 194.3 147.44 183 147.47 174.56 174.81 163.24 174.76 171.68 147.44 160.51 147.44 162.18 141.97 195.97 142"/><path class="b" d="M228.08,147.4s-12.94,0-14.51,0c-2.06,0-2.65,1.09-3.46,3.32s-1.3,3.61.23,3.68c3.32.15,6.39.1,8.54.15,3.88.09,6.39,4.12,5.61,6.93-.53,1.9-2.45,7.42-3,8.88-.92,2.37-2,4.33-6.35,4.36-3.95,0-25.16,0-25.16,0l1.79-5.6s15.47,0,16.42,0c1.21-.05,1.83-1.54,2.48-3.32s.54-3-.61-3.06c-1.52,0-5.22.07-8.24-.07-4.9-.23-6.55-5.3-5.68-8.1,1-3.24,1.63-5.14,2.63-8.21.67-2.06,2.17-4.33,7.82-4.33l23.18,0Z"/><polygon class="b" points="330.28 142 341.84 142.04 333.49 169.24 347.02 169.19 345.33 174.82 320.29 174.82 330.3 142.09 330.28 142"/><path class="b" d="M152.24,142c-3.73,0-12.59,0-17.3,0-3.29,0-7,1.26-8,4.71-2,6.51-4.56,14.62-5.83,19.11-1.9,6.74,2.73,9,4.95,9h20.28c1.75,0,4.72-1.55,5.88-5.49s3.73-11.87,5.41-18.16C159.17,145.27,156,142,152.24,142Zm-5.49,8.39c-.35,1.22-4.82,15.77-5,16.35-.55,1.71-1.07,2.53-2.48,2.53h-5.5c-2.11,0-2.11-1.45-1.47-3.4,1.49-4.53,4.19-13.54,4.85-15.8.35-1.2.38-2.53,2.36-2.56,2.82,0,3.73,0,6,0C147,147.44,147.21,148.73,146.75,150.39Z"/><path class="b" d="M315.44,142c-3.73,0-12.58,0-17.29,0-3.29,0-7,1.26-8,4.71-2,6.5-4.57,14.62-5.84,19.11-1.88,6.74,2.74,9,5,9h20.27c1.75,0,4.73-1.54,5.88-5.46s3.73-11.88,5.42-18.18C322.39,145.24,319.19,142,315.44,142ZM310,150.34c-.35,1.24-4.82,15.79-5,16.35-.54,1.72-1.07,2.53-2.48,2.53H297c-2.11,0-2.11-1.46-1.47-3.4,1.51-4.53,4.2-13.54,4.86-15.81.35-1.2.38-2.52,2.37-2.55,2.81,0,3.71,0,6,0C310.24,147.4,310.41,148.69,310,150.34Z"/><path class="b" d="M163.41,146.84"/><polygon class="b" points="233.53 141.82 244.44 141.82 244.55 162.57 256.54 142.17 267.57 142.17 267.92 162.33 278.15 142.04 286.7 142.04 268.8 174.71 256.44 174.6 256.31 154.31 244.78 174.82 233.79 174.82 233.53 141.82"/><path class="b" d="M160.4,211.8a11.08,11.08,0,0,1,3.36-8.32,11.33,11.33,0,0,1,8.18-3.24,11.46,11.46,0,0,1,8.14,3.2,12,12,0,0,1,0,16.73,11.42,11.42,0,0,1-8.15,3.21,11.28,11.28,0,0,1-8.22-3.26A11.15,11.15,0,0,1,160.4,211.8Zm4.57,0a7.3,7.3,0,0,0,2,5.32,6.94,6.94,0,0,0,9.91,0,7.37,7.37,0,0,0,2-5.3,7.28,7.28,0,0,0-2-5.32,6.63,6.63,0,0,0-4.93-2.09,6.52,6.52,0,0,0-5,2.13A7.48,7.48,0,0,0,165,211.81Z"/><path class="b" d="M208.89,218.93v3.82h-8.08v-2.51a12.22,12.22,0,0,1-7.27,2.87,6.41,6.41,0,0,1-3.65-1,4.55,4.55,0,0,1-1.92-2.49,18.13,18.13,0,0,1-.48-4.93V204.65h-3.08v-3.83h7.38v13.36a25.09,25.09,0,0,0,.13,3.26,2.21,2.21,0,0,0,.8,1.38,2.55,2.55,0,0,0,1.67.54q3,0,6.42-2.85V204.65h-3.87v-3.83h8.16v18.11Z"/><path class="b" d="M209.57,204.65v-3.83h2.85v-3.36l4.29-3.94v7.3h4.06v3.83h-4.06v10.65a10.11,10.11,0,0,0,.28,3.16c.19.4.66.6,1.42.6a6.16,6.16,0,0,0,2.36-.47v3.9a9.35,9.35,0,0,1-3.31.63,5.39,5.39,0,0,1-3.19-.88,3.71,3.71,0,0,1-1.54-2.18,22.2,22.2,0,0,1-.32-4.53V204.65Z"/><path class="b" d="M249.87,218.93v3.82h-8.24v-3.23a10.15,10.15,0,0,1-7.84,3.58,10.89,10.89,0,0,1-7.52-2.92q-3.23-2.91-3.23-8.3a11.14,11.14,0,0,1,3.32-8.53,10.71,10.71,0,0,1,7.52-3.12,10.28,10.28,0,0,1,7.74,3.53v-8.69h-4.22v-3.83h8.51v27.68Zm-22.22-7.16a7.31,7.31,0,0,0,2,5.57,7,7,0,0,0,9.8-.1,7.48,7.48,0,0,0,2.14-5.67,6.81,6.81,0,0,0-2.18-5.5,7.38,7.38,0,0,0-4.9-1.85,6.37,6.37,0,0,0-4.91,2.18A7.68,7.68,0,0,0,227.65,211.77Z"/><path class="b" d="M250.26,211.8a11.07,11.07,0,0,1,3.36-8.32,11.33,11.33,0,0,1,8.18-3.24,11.46,11.46,0,0,1,8.14,3.2,12,12,0,0,1,0,16.73,11.42,11.42,0,0,1-8.15,3.21,11.28,11.28,0,0,1-8.22-3.26A11.15,11.15,0,0,1,250.26,211.8Zm4.57,0a7.28,7.28,0,0,0,2,5.32,6.93,6.93,0,0,0,9.91,0,7.37,7.37,0,0,0,2-5.3,7.29,7.29,0,0,0-2-5.32,6.64,6.64,0,0,0-4.94-2.09,6.5,6.5,0,0,0-5,2.13A7.46,7.46,0,0,0,254.83,211.81Z"/><path class="b" d="M276.24,211.8a11.08,11.08,0,0,1,3.36-8.32,11.32,11.32,0,0,1,8.18-3.24,11.45,11.45,0,0,1,8.14,3.2,12,12,0,0,1,0,16.73,11.42,11.42,0,0,1-8.15,3.21,11.28,11.28,0,0,1-8.22-3.26A11.15,11.15,0,0,1,276.24,211.8Zm4.57,0a7.3,7.3,0,0,0,2,5.32,6.93,6.93,0,0,0,9.91,0,7.37,7.37,0,0,0,2-5.3,7.29,7.29,0,0,0-2-5.32,6.64,6.64,0,0,0-4.93-2.09,6.52,6.52,0,0,0-5,2.13A7.49,7.49,0,0,0,280.81,211.81Z"/><path class="b" d="M305.35,218.93V204.65h-4.41v-3.83h7.85v4.94a8.68,8.68,0,0,1,2-3.2,6.33,6.33,0,0,1,2.74-1.66,15.53,15.53,0,0,1,3.94-.39h1.14v4.34h-.87a14,14,0,0,0-4.92.65,4.41,4.41,0,0,0-2.41,2.39q-.79,1.73-.79,6.22v4.82h4.76v3.82H300.94v-3.82Z"/></svg>