<svg xmlns="http://www.w3.org/2000/svg" width="35.28mm" height="13.81mm" viewBox="0 0 100 39.15"><defs><style>.a{fill:#fff;}</style></defs><title>partner</title><path class="a" d="M81.36,12.1A15.48,15.48,0,0,1,75,14.85q-1.34.29-2.69.46A54.15,54.15,0,0,0,73,23.1c.45,2.37,1.79,7.79,5.3,6.39.28-.11.85-.28,1.12-.06s-.38.51-.5.55c-7,2.8-8.13-7.52-8.33-14.49a44.41,44.41,0,0,1-17.75-2.7c-1.21-.43.43-1.58,1.22-1.3,5.18,1.82,10.64,3.38,16.5,2.89,0-1.43,0-2.65,0-3.5,0-.54,1.72-.83,1.73-.46,0,1.11,0,2.4.07,3.75.75-.12,1.5-.27,2.26-.46a13.64,13.64,0,0,0,5.27-2.28,2.81,2.81,0,0,0,1.36-2.74C81,7.8,83,7.26,83.24,8.14,83.61,9.75,82.55,11.15,81.36,12.1Z"/><path class="a" d="M59.76,26a5.06,5.06,0,0,1-1.81-2c-1,1.4-2.51,2.56-4,1.5-1.86-1.29-.86-3.93-.33-5.68.19-.62,1.77-.82,1.57-.14-.37,1.2-1,2.76-.66,4,.14.48.66,1.37,1.25.95a4.42,4.42,0,0,0,1.54-2.29c.16-.52,1.32-.95,1.56-.28a5.67,5.67,0,0,0,2.13,3C61.69,25.6,60.3,26.34,59.76,26Z"/><path class="a" d="M89.72,24.3c-1.41.63-3.27,1.21-4.72.32a1.9,1.9,0,0,1-.71-1.12v0a6.65,6.65,0,0,1-1.07,1.29,2.85,2.85,0,0,1-2.65.9c-2.3-.82-.88-4.26,0-5.65.34-.55,1.93-.57,1.48.15-.59,1-1.78,3.26-.81,4.3.72.78,2.2-2.21,2.35-2.74a1,1,0,0,1,1.39-.5c.59.4.68,1.24.89,1.87.48,1.41,2.16.81,3.2.34C89.82,23.07,90.69,23.85,89.72,24.3Z"/><path class="a" d="M52.06,22.28c0,.55-1.58.86-1.56.18,0-1.14-.21-2.66-1.4-3.19a2.07,2.07,0,0,0-2.37.76,4.23,4.23,0,0,0-1.11,3.76c.26.75,1,1.24,1.71.7s1.11-1,1.68-1.54c.28-.24,1.05-.54,1.35-.16s.73,1.11,1.14,1.64-1.09,1.07-1.44.63-.46-.65-.68-1a5.61,5.61,0,0,1-2.07,1.45A2.72,2.72,0,0,1,44.55,25c-1.28-1.43-.34-3.79.7-5.06a4.59,4.59,0,0,1,4.55-1.7C51.59,18.83,52.12,20.55,52.06,22.28Z"/><path class="a" d="M67,18.78c-1.27.61-1.76,2.39-2.07,3.65S64.45,25,64,26.26c-.1.3-1.47.72-1.55.34-.38-1.92-.8-3.7-2.92-4.25-.35-.09,0-.36.18-.43a1.76,1.76,0,0,1,1.09-.19,3.56,3.56,0,0,1,2.37,1.79c.43-2,1-4.05,2.92-5a1.74,1.74,0,0,1,1.09-.19C67.56,18.44,67.16,18.71,67,18.78Z"/><path class="a" d="M67.35,20.3a7.05,7.05,0,0,0,.34,4.94c.26.65,1.8.19,1.55-.42a6.61,6.61,0,0,1-.33-4.67c.21-.66-1.37-.47-1.57.15Z"/><path class="a" d="M76.42,20.19a10.08,10.08,0,0,0,.32,4.57c.23.75,1.79.32,1.56-.42A9.37,9.37,0,0,1,78,20.08c.12-.82-1.47-.63-1.58.11Z"/><path class="a" d="M89.84,18.68c-1,1,1,3.26,1.55,4.1.22.32,1.57,2.3.84,2.45a19.43,19.43,0,0,1-2.69.12,1.73,1.73,0,0,0-1,.38c-.26.25.23.29.38.28,1.27-.08,5.6.31,5-2a10.66,10.66,0,0,0-1.67-2.7c-.32-.48-1.54-2.12-1-2.72.24-.26-.21-.29-.37-.28a1.68,1.68,0,0,0-1,.38Z"/><path class="a" d="M77,17.4l0,0a.59.59,0,0,1-.06-.26.12.12,0,0,1,0,0,1.2,1.2,0,0,0,.38,0c.12,0,.52-.17.46-.36a.72.72,0,0,0-.33-.44,1.13,1.13,0,0,0-.94.12,1.17,1.17,0,0,0-.61.92.83.83,0,0,0,0,.26,2.38,2.38,0,0,0,.09.26.56.56,0,0,0,.46.41,1.25,1.25,0,0,0,1.34-.71C77.82,17.23,77.3,17.25,77,17.4Zm.13-.84h0Zm-.44,1.19h0Zm.44-.08h0S77.11,17.68,77.1,17.67Z"/><path class="a" d="M76.67,17.75h0Z"/><polygon class="a" points="77.1 16.56 77.1 16.56 77.1 16.56 77.1 16.56"/><path class="a" d="M77.11,17.67s0,0,0,0Z"/><path class="a" d="M80.34,29.56a0,0,0,0,0,0,0c.15-.91.39-1,.39-1,3.4-2.08,5.49-.13,9,.36A9.23,9.23,0,0,0,97.18,27c1.86-1.34,3-4.38,2.8-3.11a8.27,8.27,0,0,1-1.81,3.46c-.28.31-4.27,4-9.48,2.71-5-1.52-6.58-1-7.54-.74,0,0-.27.08-.48.16s-.32.12-.32.07Z"/><path class="a" d="M47.73,28.07h0s0-.09-.26-.07h0a5,5,0,0,1-2.23-.38,3.6,3.6,0,0,1-.94-.53A4.76,4.76,0,0,1,43,25.79h0c-.22-.29-.42-.59-.6-.88a24,24,0,0,1-2.18-4.62c-.32-.78-1.34-3.59-1.34-3.59-.78-2.1-1.4-4.05-2.36-6.24a2.57,2.57,0,0,0-3-1.6c-1.38.2-1.91,1.05-2.26,2.34a62.39,62.39,0,0,1-2.44,8.53c-.07-.23-.13-.44-.18-.6a41.07,41.07,0,0,1-.88-4.46,73.53,73.53,0,0,0-1.52-8.89c-.2-.7-.45-1.6-1.22-1.87a2.27,2.27,0,0,0-2.85.81,7.18,7.18,0,0,0-.56,1.14c-3.44,12-8.77,19.93-13.53,24.94a30.28,30.28,0,0,1-2.54,2.47A36.23,36.23,0,0,1,.15,37.37a.37.37,0,0,0-.15.31,2.41,2.41,0,0,0,.83,1.24c.09.07,1,.7,2.73-.48C7.78,35.24,17.91,25.84,23.89,5.8c0,0,.71-.52,1,2.57.12.76.19,1.51.25,2.26.4,3.37,1.28,9.48,2.5,11h0a2.09,2.09,0,0,0,.38.2,1.84,1.84,0,0,0,1.81-.35c.89-.79,1.1-2.1,1.41-3.44.43-1.83.67-3.39,1.18-5.2a12.06,12.06,0,0,1,.7-2c.53-1.14,1.11-.29,1.11-.29a8.11,8.11,0,0,1,.85,1.8c.84,2.29,1.55,4.42,2.33,6.6,1.67,4.53,3.47,9.62,8.7,9.87.25,0,1.71-.09,1.71-.51a.27.27,0,0,0-.1-.2Z"/><path class="a" d="M24.39,0a2,2,0,0,0-1.46,1,1.49,1.49,0,0,0-.28,1,2.63,2.63,0,0,0,.9,1.48l0,0a.88.88,0,0,0,.59.35.53.53,0,0,0,.33-.13A3.79,3.79,0,0,0,25.12.64.71.71,0,0,0,24.39,0Z"/><path class="a" d="M71.19,5.91c-1.08-.08-2.41.57-2,1.85a1.15,1.15,0,0,0,.37.51,1,1,0,0,0,1,0,1.24,1.24,0,0,0,.68-.48,2.64,2.64,0,0,0,.2-.78c.07-.31-.9-.15-1,.14s-.06.74-.25.77l.32,0A1,1,0,0,1,70.11,7a1,1,0,0,1,.17-.49c.11-.16.14-.16.31-.14a1,1,0,0,0,.69-.18c.15-.12.13-.28-.08-.29Z"/><path class="a" d="M25.64,30.33v3.14h-.41V30.33Z"/><path class="a" d="M27.3,30.57v.65h.59v.31H27.3v1.22c0,.28.08.44.31.44a.92.92,0,0,0,.24,0l0,.31a1,1,0,0,1-.36.06.57.57,0,0,1-.44-.17.84.84,0,0,1-.16-.59V31.53h-.35v-.31h.35v-.54Z"/><path class="a" d="M29.33,30.28a5.39,5.39,0,0,1-.44,1.1l-.26,0a6.59,6.59,0,0,0,.28-1.1Z"/><path class="a" d="M30.19,33.05a1.07,1.07,0,0,0,.54.16c.3,0,.44-.15.44-.34s-.12-.3-.42-.41-.6-.37-.6-.64a.7.7,0,0,1,.78-.66,1.13,1.13,0,0,1,.55.14l-.1.3a.88.88,0,0,0-.46-.13c-.24,0-.38.14-.38.31s.14.27.43.38.59.34.59.68-.31.68-.84.68a1.29,1.29,0,0,1-.63-.15Z"/><path class="a" d="M35.26,33.47l0-.28h0a.84.84,0,0,1-.69.34.64.64,0,0,1-.69-.65c0-.55.48-.84,1.36-.84v0a.46.46,0,0,0-.51-.52,1.12,1.12,0,0,0-.59.17L34,31.36a1.4,1.4,0,0,1,.74-.2c.69,0,.86.47.86.92v.84a3.18,3.18,0,0,0,0,.54Zm-.06-1.15c-.45,0-1,.07-1,.51a.36.36,0,0,0,.39.39.56.56,0,0,0,.55-.38.43.43,0,0,0,0-.13Z"/><path class="a" d="M38.18,32c0-.29,0-.52,0-.74h.37l0,.39h0a.89.89,0,0,1,.8-.44,1,1,0,0,1,1,1.15,1.07,1.07,0,0,1-1,1.21.79.79,0,0,1-.69-.35h0v1.23h-.41Zm.41.6a.93.93,0,0,0,0,.17.63.63,0,0,0,.62.48c.43,0,.69-.35.69-.87s-.24-.84-.67-.84a.65.65,0,0,0-.62.51.67.67,0,0,0,0,.17Z"/><path class="a" d="M41.29,30.16h.41v3.31h-.41Z"/><path class="a" d="M43.09,32.42a.72.72,0,0,0,.77.78,1.48,1.48,0,0,0,.62-.12l.07.29a1.83,1.83,0,0,1-.75.14,1,1,0,0,1-1.11-1.14,1.1,1.1,0,0,1,1.06-1.22,1,1,0,0,1,.93,1.06,1.55,1.55,0,0,1,0,.19Zm1.2-.29a.58.58,0,0,0-.57-.67.68.68,0,0,0-.63.67Z"/><path class="a" d="M46.91,33.47l0-.28h0a.84.84,0,0,1-.69.34.64.64,0,0,1-.69-.65c0-.55.48-.84,1.36-.84v0a.46.46,0,0,0-.51-.52,1.12,1.12,0,0,0-.59.17l-.09-.27a1.4,1.4,0,0,1,.74-.2c.69,0,.86.47.86.92v.84a3.18,3.18,0,0,0,0,.54Zm-.06-1.15c-.45,0-1,.07-1,.51a.36.36,0,0,0,.39.39.56.56,0,0,0,.55-.38.43.43,0,0,0,0-.13Z"/><path class="a" d="M48.32,33.05a1.07,1.07,0,0,0,.54.16c.3,0,.44-.15.44-.34s-.12-.3-.42-.41-.6-.37-.6-.64a.7.7,0,0,1,.78-.66,1.13,1.13,0,0,1,.55.14l-.1.3a.88.88,0,0,0-.46-.13c-.24,0-.38.14-.38.31s.14.27.43.38.59.34.59.68-.31.68-.84.68a1.29,1.29,0,0,1-.63-.15Z"/><path class="a" d="M52.57,32.86c0,.23,0,.44,0,.62h-.36l0-.37h0a.85.85,0,0,1-.75.42c-.35,0-.78-.2-.78-1V31.22h.41v1.25c0,.43.13.72.5.72a.59.59,0,0,0,.54-.37.6.6,0,0,0,0-.21V31.22h.41Z"/><path class="a" d="M53.72,31.92c0-.27,0-.49,0-.7h.36v.44h0a.68.68,0,0,1,.62-.49h.12v.39h-.14a.58.58,0,0,0-.55.53,1.16,1.16,0,0,0,0,.19v1.2h-.41Z"/><path class="a" d="M55.94,32.42a.72.72,0,0,0,.77.78,1.48,1.48,0,0,0,.62-.12l.07.29a1.83,1.83,0,0,1-.75.14,1,1,0,0,1-1.11-1.14,1.1,1.1,0,0,1,1.06-1.22,1,1,0,0,1,.93,1.06,1.55,1.55,0,0,1,0,.19Zm1.2-.29a.58.58,0,0,0-.57-.67.68.68,0,0,0-.63.67Z"/></svg>